<svg width="800" height="250" viewBox="0 0 800 250" fill="none" xmlns="http://www.w3.org/2000/svg">
<g clip-path="url(#clip0_684_145)">
<path d="M326.928 108.544C326.928 106.192 326.976 103.408 324.576 102.064H333.936C330.864 103.456 331.008 106.24 331.008 109.168V124.672C331.008 125.776 331.584 127.264 331.92 128.272C333.216 131.728 335.376 134.752 338.208 136.912C340.176 138.448 344.064 140.416 346.608 140.416C349.488 140.416 352.032 138.208 353.52 135.952V141.856H351.504C342.048 141.856 334.224 137.44 331.008 128.272V136.336C331.008 138.832 331.44 140.8 333.936 141.856H324.576C326.976 140.464 326.928 138.016 326.928 135.424V108.544ZM359.539 142.24C355.843 142.24 353.779 139.36 353.779 135.904C353.779 132.64 355.795 130.528 358.483 129.232L368.755 124.24C370.867 123.232 371.971 122.176 371.971 119.488C371.971 116.416 369.475 115.984 367.267 115.888C359.971 115.744 359.251 120.208 359.875 124.624L356.227 119.92C360.499 116.032 361.651 114.976 367.267 114.976C371.779 114.976 374.851 117.04 374.851 119.488C374.851 120.976 373.987 122.416 372.739 123.232V132.736C372.739 134.56 372.067 140.08 375.091 140.08C375.427 140.08 375.715 139.984 376.051 139.888C374.947 140.992 373.459 142.24 371.827 142.192C369.379 142.096 369.427 138.784 369.427 136.912V124.864L360.979 128.944C357.907 130.432 357.091 132.736 357.091 134.416C357.091 137.392 359.155 140.416 362.323 140.416C363.619 140.416 364.819 139.888 365.875 139.312C363.763 140.848 362.323 142.24 359.539 142.24ZM375.213 102.16L380.925 99.856H381.261V137.68C381.261 138.496 381.645 139.36 382.221 139.888C383.613 140.896 385.197 141.616 386.877 141.616C394.269 141.616 397.485 135.616 397.485 128.32C397.485 124.24 394.605 115.456 389.469 115.456C386.541 115.456 384.957 118.288 383.565 120.592V114.592C385.821 114.544 386.157 114.544 388.365 114.544C395.901 114.496 400.317 122.08 400.317 128.32C400.317 136.144 394.749 142.528 386.877 142.528C384.237 142.528 381.453 141.808 379.101 140.56C378.429 140.224 377.949 139.36 377.949 138.592V111.376C377.949 109.12 378.237 102.448 375.213 102.16ZM446.209 109.312C445.681 108.928 445.393 108.304 445.393 107.632C445.393 104.512 449.329 101.968 452.065 101.968C456.577 101.968 458.833 105.328 458.833 109.36V114.64H465.361V115.6H458.833V134.656C458.833 137.152 459.313 140.176 462.529 140.176C464.257 140.176 465.169 136.096 465.169 134.752C465.169 134.032 465.025 133.312 464.497 132.784H468.625C466.945 133.6 466.129 134.752 465.793 136.576C465.217 139.408 463.729 141.904 460.033 141.904C456.049 141.904 455.569 138.4 455.569 135.28V115.552H452.017V114.448H453.553C456.049 114.496 457.681 111.664 457.777 109.024C457.777 104.944 455.329 102.832 452.065 102.832C451.345 102.832 450.529 102.976 449.857 103.264C447.985 104.08 449.857 105.616 449.809 107.68C449.809 108.88 448.801 109.84 447.601 109.84C447.121 109.84 446.593 109.648 446.209 109.312ZM444.193 116.8L449.041 114.784L449.953 114.448H450.241V136.048C450.241 137.968 450.193 140.32 452.017 141.52H445.153C446.929 140.32 446.929 137.92 446.929 136.048V125.248C446.929 122.992 447.553 117.088 444.193 116.8Z" fill="#252726"/>
<path d="M413.4 102.064H422.472C420.312 103.168 420.024 105.184 420.024 107.392V132.448H423.144C426.6 132.448 429.288 129.664 429.288 126.352V108.976C429.288 105.328 432.168 102.304 435.768 102.016C438.456 101.872 440.28 101.92 442.92 102.16L442.44 108.112C441.192 105.76 438.792 103.36 435.96 103.072C432.888 102.784 430.152 105.76 430.152 108.976V126.352C430.152 127.456 429.912 128.464 429.432 129.376L435.672 135.616C438.36 138.16 441.096 140.752 444.696 141.856H431.208C434.136 140.128 431.688 137.2 430.056 135.616L426.744 132.352C425.688 132.976 424.488 133.312 423.144 133.312H420.024V136.576C420.024 138.928 420.264 140.8 422.52 141.856H413.592C416.328 140.512 415.896 135.952 415.896 133.072V107.296C415.896 104.992 415.608 103.264 413.4 102.064Z" fill="#0076A8"/>
<path d="M441.068 149.812C441.068 150.3 441.02 150.746 440.922 151.149C440.824 151.55 440.676 151.895 440.478 152.185C440.279 152.471 440.032 152.694 439.735 152.854C439.442 153.01 439.097 153.088 438.7 153.088C438.358 153.088 438.048 153.024 437.768 152.897C437.488 152.767 437.248 152.569 437.05 152.302C436.851 152.035 436.698 151.695 436.591 151.281C436.483 150.868 436.43 150.378 436.43 149.812C436.43 149.323 436.479 148.877 436.576 148.474C436.677 148.07 436.825 147.725 437.021 147.438C437.219 147.149 437.466 146.926 437.763 146.77C438.059 146.61 438.404 146.53 438.798 146.53C439.14 146.53 439.451 146.595 439.73 146.726C440.01 146.853 440.25 147.051 440.448 147.321C440.647 147.588 440.8 147.928 440.907 148.342C441.015 148.755 441.068 149.245 441.068 149.812ZM440.209 149.841C440.209 149.73 440.204 149.621 440.194 149.514C440.188 149.403 440.18 149.296 440.17 149.191L437.47 151.198C437.519 151.368 437.58 151.524 437.655 151.667C437.73 151.81 437.82 151.934 437.924 152.038C438.031 152.139 438.152 152.219 438.285 152.277C438.422 152.333 438.576 152.36 438.749 152.36C438.97 152.36 439.171 152.307 439.35 152.199C439.532 152.092 439.687 151.932 439.813 151.721C439.94 151.509 440.038 151.247 440.106 150.935C440.175 150.619 440.209 150.254 440.209 149.841ZM437.289 149.782C437.289 149.883 437.289 149.984 437.289 150.085C437.292 150.186 437.299 150.284 437.309 150.378L440.009 148.381C439.96 148.215 439.898 148.063 439.823 147.927C439.748 147.79 439.659 147.673 439.555 147.575C439.451 147.474 439.332 147.396 439.198 147.341C439.065 147.285 438.915 147.258 438.749 147.258C438.528 147.258 438.326 147.312 438.144 147.419C437.965 147.526 437.812 147.688 437.685 147.902C437.558 148.114 437.46 148.378 437.392 148.693C437.323 149.006 437.289 149.369 437.289 149.782ZM444.208 151.462C444.319 151.462 444.423 151.483 444.521 151.525C444.621 151.568 444.708 151.626 444.779 151.701C444.854 151.776 444.913 151.864 444.955 151.965C444.997 152.062 445.019 152.168 445.019 152.282C445.019 152.393 444.997 152.497 444.955 152.595C444.913 152.692 444.854 152.779 444.779 152.854C444.708 152.925 444.621 152.982 444.521 153.024C444.423 153.067 444.319 153.088 444.208 153.088C444.094 153.088 443.988 153.067 443.891 153.024C443.793 152.982 443.707 152.925 443.632 152.854C443.56 152.779 443.503 152.692 443.461 152.595C443.419 152.497 443.397 152.393 443.397 152.282C443.397 152.168 443.419 152.062 443.461 151.965C443.503 151.864 443.56 151.776 443.632 151.701C443.707 151.626 443.793 151.568 443.891 151.525C443.988 151.483 444.094 151.462 444.208 151.462ZM451.918 153H447.714V152.238L449.364 150.598C449.634 150.331 449.854 150.1 450.023 149.904C450.193 149.709 450.325 149.532 450.419 149.372C450.513 149.209 450.577 149.056 450.609 148.913C450.642 148.77 450.658 148.615 450.658 148.449C450.658 148.293 450.637 148.145 450.595 148.005C450.552 147.862 450.487 147.736 450.399 147.629C450.312 147.521 450.198 147.437 450.058 147.375C449.918 147.313 449.75 147.282 449.555 147.282C449.285 147.282 449.039 147.342 448.817 147.463C448.596 147.583 448.393 147.74 448.207 147.932L447.738 147.37C447.979 147.116 448.256 146.913 448.568 146.76C448.884 146.607 449.25 146.53 449.667 146.53C449.95 146.53 450.207 146.573 450.438 146.657C450.673 146.742 450.875 146.864 451.044 147.023C451.213 147.183 451.343 147.378 451.435 147.609C451.529 147.84 451.576 148.101 451.576 148.391C451.576 148.635 451.544 148.861 451.479 149.069C451.413 149.278 451.314 149.486 451.181 149.694C451.05 149.899 450.884 150.113 450.683 150.334C450.484 150.555 450.248 150.798 449.975 151.062L448.817 152.189H451.918V153ZM455.204 151.462C455.315 151.462 455.419 151.483 455.517 151.525C455.618 151.568 455.704 151.626 455.775 151.701C455.85 151.776 455.909 151.864 455.951 151.965C455.993 152.062 456.015 152.168 456.015 152.282C456.015 152.393 455.993 152.497 455.951 152.595C455.909 152.692 455.85 152.779 455.775 152.854C455.704 152.925 455.618 152.982 455.517 153.024C455.419 153.067 455.315 153.088 455.204 153.088C455.09 153.088 454.984 153.067 454.887 153.024C454.789 152.982 454.703 152.925 454.628 152.854C454.556 152.779 454.499 152.692 454.457 152.595C454.415 152.497 454.394 152.393 454.394 152.282C454.394 152.168 454.415 152.062 454.457 151.965C454.499 151.864 454.556 151.776 454.628 151.701C454.703 151.626 454.789 151.568 454.887 151.525C454.984 151.483 455.09 151.462 455.204 151.462ZM463.061 149.812C463.061 150.3 463.012 150.746 462.914 151.149C462.816 151.55 462.668 151.895 462.47 152.185C462.271 152.471 462.024 152.694 461.728 152.854C461.435 153.01 461.09 153.088 460.692 153.088C460.351 153.088 460.04 153.024 459.76 152.897C459.48 152.767 459.241 152.569 459.042 152.302C458.843 152.035 458.69 151.695 458.583 151.281C458.476 150.868 458.422 150.378 458.422 149.812C458.422 149.323 458.471 148.877 458.568 148.474C458.669 148.07 458.817 147.725 459.013 147.438C459.211 147.149 459.459 146.926 459.755 146.77C460.051 146.61 460.396 146.53 460.79 146.53C461.132 146.53 461.443 146.595 461.723 146.726C462.003 146.853 462.242 147.051 462.44 147.321C462.639 147.588 462.792 147.928 462.899 148.342C463.007 148.755 463.061 149.245 463.061 149.812ZM462.201 149.841C462.201 149.73 462.196 149.621 462.187 149.514C462.18 149.403 462.172 149.296 462.162 149.191L459.462 151.198C459.511 151.368 459.573 151.524 459.647 151.667C459.722 151.81 459.812 151.934 459.916 152.038C460.023 152.139 460.144 152.219 460.277 152.277C460.414 152.333 460.569 152.36 460.741 152.36C460.963 152.36 461.163 152.307 461.342 152.199C461.524 152.092 461.679 151.932 461.806 151.721C461.933 151.509 462.03 151.247 462.099 150.935C462.167 150.619 462.201 150.254 462.201 149.841ZM459.281 149.782C459.281 149.883 459.281 149.984 459.281 150.085C459.285 150.186 459.291 150.284 459.301 150.378L462.001 148.381C461.952 148.215 461.89 148.063 461.815 147.927C461.741 147.79 461.651 147.673 461.547 147.575C461.443 147.474 461.324 147.396 461.19 147.341C461.057 147.285 460.907 147.258 460.741 147.258C460.52 147.258 460.318 147.312 460.136 147.419C459.957 147.526 459.804 147.688 459.677 147.902C459.55 148.114 459.452 148.378 459.384 148.693C459.315 149.006 459.281 149.369 459.281 149.782Z" fill="black"/>
<path d="M-210 126V90H-174H-138V102V114H-150H-162V126V138H-150H-138V150V162H-174H-210V126ZM-103.44 126V90H-79.44H-55.44V102V114H-43.44H-31.44V138V162H-43.44H-55.44V138V114H-67.44H-79.44V138V162H-91.44H-103.44V126ZM27.12 102V90H39.12H51.12V126V162H27.12H3.12V138V114H15.12H27.12V102ZM109.68 126V90H133.68H157.68V114V138H169.68H181.68V150V162H145.68H109.68V126ZM216.24 126V90H252.24H288.24V102V114H264.24H240.24V138V162H228.24H216.24V126ZM405.36 126V90H429.36H453.36V102V114H465.36H477.36V126V138H465.36H453.36V150V162H429.36H405.36V126ZM453.36 126V114H441.36H429.36V126V138H441.36H453.36V126ZM511.92 126V90H547.92H583.92V102V114H559.92H535.92V138V162H523.92H511.92V126ZM618.48 126V90H642.48H666.48V114V138H678.48H690.48V150V162H654.48H618.48V126ZM749.04 102V90H773.04H797.04V126V162H773.04H749.04V150V138H737.04H725.04V126V114H737.04H749.04V102ZM773.04 126V114H761.04H749.04V126V138H761.04H773.04V126ZM831.6 126V90H843.6H855.6V102V114H879.6H903.6V138V162H867.6H831.6V126ZM962.16 126V114H986.16H1010.16V126V138H998.16H986.16V150V162H962.16H938.16V150V138H950.16H962.16V126Z" fill="black" fill-opacity="0.09"/>
</g>
<defs>
<clipPath id="clip0_684_145">
<rect width="800" height="250" fill="white"/>
</clipPath>
</defs>
</svg>
